<?xml version="1.0" encoding="utf-8"?>
<svg version="1.1" id="Layer_1" xmlns="http://www.w3.org/2000/svg" xmlns:xlink="http://www.w3.org/1999/xlink" x="0px" y="0px"
	 viewBox="0 0 99.2 65.7" style="enable-background:new 0 0 99.2 65.7;" xml:space="preserve">
<style type="text/css">
	.st0{fill:#FFFFFF;}
</style>
<g>
	<g>
		<g id="Symbol_2_5">
			<g id="Gruppe_38" transform="translate(-3110.741 -1728.993)">
				<g id="Gruppe_36" transform="translate(3159.938 1800.617)">
					<path id="Pfad_10" class="st0" d="M0.4-30.6l-23.9-8.9v11.1l0,0c0.6,6.8,11.3,12.3,24.3,12.3s23.7-5.4,24.3-12.2l0,0v-11.6
						L0.4-30.6z"/>
				</g>
				<g id="Gruppe_37" transform="translate(3136.741 1771.993)">
					<path id="Pfad_11" class="st0" d="M24-4.3l46.7-17.5L23.8-39.9l-47.3,18l15.1,5.6v6.3c-0.9,0.6-1.1,1.8-0.5,2.6l0,0
						c0,0,0,0,0,0.1v4c0,0.5,0.2,1,0.7,1.3l-2.1,18.5l0,0c0,0.1,0,0.3,0,0.4c0.1,1.6,1.5,2.8,3.1,2.7c1.6,0.1,3-1.1,3.1-2.7
						c0-0.1,0-0.3,0-0.4l0,0L-6.4-2C-6-2.3-5.7-2.8-5.7-3.3v-4c0,0,0,0,0-0.1c0.6-0.8,0.4-2-0.5-2.6l0,0v-5.5L24-4.3z"/>
				</g>
			</g>
		</g>
	</g>
</g>
</svg>
