<?xml version="1.0" encoding="utf-8"?>
<!-- Generator: Adobe Illustrator 22.1.0, SVG Export Plug-In . SVG Version: 6.00 Build 0)  -->
<svg version="1.1" id="Layer_1" xmlns="http://www.w3.org/2000/svg" xmlns:xlink="http://www.w3.org/1999/xlink" x="0px" y="0px"
	 viewBox="0 0 99.3 90.3" style="enable-background:new 0 0 99.3 90.3;" xml:space="preserve">
<style type="text/css">
	.st0{fill:#FFFFFF;}
</style>
<g>
	<g>
		<g>
			<g>
				<g id="Symbol_3_1_1_">
					<g id="Gruppe_48_1_" transform="translate(-3601 -1924.566)">
						<g id="Gruppe_47_1_" transform="translate(490.259 207.007)">
							<g id="Gruppe_36_1_" transform="translate(3159.938 1800.617)">
								<path id="Pfad_10_1_" class="st0" d="M0.4-18.1L-23.5-27v11.1l0,0c0.7,7,11.3,12.4,24.4,12.4s23.7-5.4,24.3-12.3l0,0v-11.6
									L0.4-18.1z"/>
							</g>
							<g id="Gruppe_37_1_" transform="translate(3136.741 1771.993)">
								<path id="Pfad_11_1_" class="st0" d="M24,8.3L70.7-9.2L23.9-27.3l-47.3,18l15.1,5.6v6.3c-0.9,0.6-1.1,1.8-0.5,2.6l0,0
									c0,0,0,0,0,0.1v4c0,0.5,0.2,1,0.7,1.3l-2.1,18.5l0,0c0,0.1,0,0.3,0,0.4c0.1,1.6,1.5,2.8,3.1,2.7c1.6,0.1,3-1.1,3.1-2.7
									c0-0.1,0-0.3,0-0.4l0,0l-2.3-18.5c0.4-0.3,0.7-0.8,0.7-1.3v-4c0,0,0,0,0-0.1c0.6-0.8,0.4-2-0.5-2.6l0,0v-5.5L24,8.3z"/>
							</g>
						</g>
					</g>
				</g>
			</g>
		</g>
	</g>
	<path class="st0" d="M71.7,27.4c0-0.1,0-0.3,0-0.4c0-6.7,0-13.4,0-20.1c0-0.4,0-0.9-0.1-1.3c0-0.3,0-0.4,0.3-0.5
		c0.7-0.2,1.5-0.2,2.1,0.2c1.8,1,3.7,2.1,5.5,3.2c1.4,0.9,1.8,2.5,0.9,4c-1.2,2.1-2.4,4.1-3.6,6.2c-1.6,2.8-3.2,5.6-4.8,8.4
		C71.9,27.2,71.9,27.3,71.7,27.4C71.8,27.4,71.8,27.4,71.7,27.4z"/>
	<path class="st0" d="M69.5,31.9c0-8.3,0-16.7,0-25c0-1-0.3-1.9-1.2-2.6c-0.6-0.5-1.3-0.6-2-0.6c-2.2,0-4.4,0-6.7,0
		c-1.5,0-2.7,0.9-3,2.2c-0.1,0.2-0.1,0.4-0.1,0.6c0,6.8,0,13.6,0,20.4L69.5,31.9z"/>
	<path class="st0" d="M88,38.9c0.3,0,0.7,0,1,0c0.2,0,0.4-0.1,0.6-0.1c1.4-0.3,2.2-1.5,2.2-3c0-2.6,0-5.2,0-7.8
		c0-1.3-0.6-2.2-1.7-2.8c-0.3-0.1-0.6-0.1-0.9,0c-2.8,1.6-5.5,3.2-8.3,4.8c-2.1,1.2-4.3,2.5-6.4,3.7L88,38.9z"/>
	<path class="st0" d="M71.9,32.7c0.1,0,0.2-0.1,0.2-0.1c5.3-3,10.5-6.1,15.8-9.1c1.5-0.8,2-2.5,1.2-3.9c-1-1.8-2.1-3.7-3.2-5.5
		c-0.6-0.9-1.5-1.3-2.6-1.3c-0.3,0-0.6,0.1-0.8,0.4c-3.5,6.2-7.1,12.3-10.6,18.5c-0.2,0.3-0.2,0.6-0.1,1L71.9,32.7z"/>
</g>
</svg>
