<?xml version="1.0" encoding="utf-8"?>
<!-- Generator: Adobe Illustrator 22.1.0, SVG Export Plug-In . SVG Version: 6.00 Build 0)  -->
<svg version="1.1" id="Layer_1" xmlns="http://www.w3.org/2000/svg" xmlns:xlink="http://www.w3.org/1999/xlink" x="0px" y="0px"
	 viewBox="0 0 99.3 90.3" style="enable-background:new 0 0 99.3 90.3;" xml:space="preserve">
<style type="text/css">
	.st0{fill:#FFFFFF;}
</style>
<g>
	<g>
		<g>
			<g id="Symbol_3_1_2_">
				<g id="Gruppe_48_2_" transform="translate(-3601 -1924.566)">
					<g id="Gruppe_47_2_" transform="translate(490.259 207.007)">
						<g id="Gruppe_36_2_" transform="translate(3159.938 1800.617)">
							<path id="Pfad_10_2_" class="st0" d="M0.4-18.1L-23.5-27v11.1l0,0c0.7,7,11.3,12.4,24.4,12.4s23.7-5.4,24.3-12.3l0,0v-11.6
								L0.4-18.1z"/>
						</g>
						<g id="Gruppe_37_2_" transform="translate(3136.741 1771.993)">
							<path id="Pfad_11_2_" class="st0" d="M24,8.3L70.7-9.2L23.9-27.3l-47.3,18l15.1,5.6v6.3c-0.9,0.6-1.1,1.8-0.5,2.6l0,0
								c0,0,0,0,0,0.1v4c0,0.5,0.2,1,0.7,1.3l-2.1,18.5l0,0c0,0.1,0,0.3,0,0.4c0.1,1.6,1.5,2.8,3.1,2.7c1.6,0.1,3-1.1,3.1-2.7
								c0-0.1,0-0.3,0-0.4l0,0l-2.3-18.5c0.4-0.3,0.7-0.8,0.7-1.3v-4c0,0,0,0,0-0.1c0.6-0.8,0.4-2-0.5-2.6l0,0v-5.5L24,8.3z"/>
						</g>
					</g>
				</g>
			</g>
		</g>
	</g>
	<path class="st0" d="M88,38.7c3.8-3.7,6.2-8.9,6.2-14.6c0-11.2-9.1-20.4-20.4-20.4c-11.3,0-20.5,9.2-20.4,20.4c0,0.4,0,0.8,0.1,1.2
		L88,38.7z M71.8,18.5c0-1.8,0-3.6,0-5.4c0-1.1,0.6-1.9,1.6-2.1c1-0.2,2,0.4,2.2,1.4c0.1,0.3,0.1,0.6,0.1,0.9c0,3.1,0,6.2,0,9.3
		c0,0.4,0.1,0.8,0.4,1.1c1.5,1.5,3,3,4.5,4.5c0.4,0.4,0.7,1,0.6,1.6c-0.1,0.8-0.5,1.3-1.2,1.6c-0.8,0.3-1.4,0.1-2-0.4
		c-1.9-1.9-3.7-3.7-5.6-5.6c-0.5-0.5-0.6-1-0.6-1.6C71.8,22,71.8,20.3,71.8,18.5z"/>
</g>
</svg>
