<?xml version="1.0" encoding="utf-8"?>
<!-- Generator: Adobe Illustrator 22.1.0, SVG Export Plug-In . SVG Version: 6.00 Build 0)  -->
<svg version="1.1" id="Layer_1" xmlns="http://www.w3.org/2000/svg" xmlns:xlink="http://www.w3.org/1999/xlink" x="0px" y="0px"
	 viewBox="0 0 99.3 90.3" style="enable-background:new 0 0 99.3 90.3;" xml:space="preserve">
<style type="text/css">
	.st0{fill:#FFFFFF;}
</style>
<g>
	<g>
		<g>
			<g id="Symbol_3_1_5_">
				<g id="Gruppe_48_5_" transform="translate(-3601 -1924.566)">
					<g id="Gruppe_47_5_" transform="translate(490.259 207.007)">
						<g id="Gruppe_36_3_" transform="translate(3159.938 1800.617)">
							<path id="Pfad_10_3_" class="st0" d="M0.4-18.6l-23.9-8.9v11.1l0,0C-22.8-9.4-12.2-4,0.9-4C14-4,24.6-9.4,25.2-16.3l0,0
								v-11.6L0.4-18.6z"/>
						</g>
						<g id="Gruppe_37_5_" transform="translate(3136.741 1771.993)">
							<path id="Pfad_11_5_" class="st0" d="M24,7.8L70.7-9.7L23.9-27.8l-47.3,18l15.1,5.6v6.3c-0.9,0.6-1.1,1.8-0.5,2.6l0,0
								c0,0,0,0,0,0.1v4c0,0.5,0.2,1,0.7,1.3l-2.1,18.5l0,0c0,0.1,0,0.3,0,0.4c0.1,1.6,1.5,2.8,3.1,2.7c1.6,0.1,3-1.1,3.1-2.7
								c0-0.1,0-0.3,0-0.4l0,0l-2.3-18.5c0.4-0.3,0.7-0.8,0.7-1.3v-4c0,0,0,0,0-0.1c0.6-0.8,0.4-2-0.5-2.6l0,0v-5.5L24,7.8z"/>
						</g>
					</g>
				</g>
			</g>
		</g>
	</g>
	<path class="st0" d="M76.5,33.7c0.5-0.3,1-0.5,1.6-0.5c1.6-0.1,3.2,0,4.9-0.1c2.6-0.1,5-1,6.9-2.7c2.3-1.9,3.5-4.4,3.9-7.4
		c0-0.4,0.1-0.8,0.1-1.2c0-0.1,0-0.2,0-0.3c-0.1-0.5-0.1-1.1-0.2-1.6c-0.5-4.5-2.6-8.2-6-11.2c-3.3-2.9-7.1-4.5-11.5-5.1
		c-3.9-0.5-7.8-0.1-11.4,1.6c-6.3,2.9-10.3,7.7-11.7,14.5c-0.3,1.7-0.5,3.3-0.5,4.8L76.5,33.7z M85.9,17.1c2,0,3.4,1.6,3.4,3.5
		S87.7,24,85.8,24s-3.4-1.6-3.4-3.5S84,17.1,85.9,17.1z M79,8c1.9,0,3.5,1.5,3.5,3.5c0,1.9-1.5,3.5-3.5,3.5c-1.9,0-3.5-1.6-3.5-3.5
		C75.5,9.5,77.1,7.9,79,8z M67.6,8c1.9,0,3.5,1.6,3.5,3.5S69.5,15,67.6,15s-3.5-1.6-3.5-3.5C64.1,9.5,65.6,7.9,67.6,8z M60.6,17.1
		c1.9,0,3.5,1.5,3.5,3.5c0,1.9-1.5,3.5-3.4,3.5c-2,0-3.5-1.5-3.5-3.4S58.7,17.1,60.6,17.1z"/>
</g>
</svg>
