<?xml version="1.0" encoding="utf-8"?>
<!-- Generator: Adobe Illustrator 22.1.0, SVG Export Plug-In . SVG Version: 6.00 Build 0)  -->
<svg version="1.1" id="Layer_1" xmlns="http://www.w3.org/2000/svg" xmlns:xlink="http://www.w3.org/1999/xlink" x="0px" y="0px"
	 viewBox="0 0 94 79.5" style="enable-background:new 0 0 94 79.5;" xml:space="preserve">
<style type="text/css">
	.st0{fill:#FFFFFF;}
</style>
<g>
	<g id="Symbol_4_5_4_">
		<g id="Gruppe_55_4_" transform="translate(-3516.014 -2367.962)">
			<g id="Gruppe_54_4_" transform="translate(3548.014 2413.656)">
				<path id="Pfad_2_4_" class="st0" d="M-4,31.5h15.2v-50.8H-4V31.5z"/>
				<path id="Pfad_3_4_" class="st0" d="M32.4-19.3H16.3v50.8h16.1c2.8,0,5.1-2.3,5.1-5.1v-40.7C37.5-17.1,35.2-19.3,32.4-19.3"/>
				<path id="Pfad_4_4_" class="st0" d="M-25.2-19.3c-2.8,0-5.1,2.3-5.1,5.1v40.7c0,2.8,2.3,5.1,5.1,5.1h16.1v-50.9H-25.2z"/>
				<path id="Pfad_5_4_" class="st0" d="M16.3-19.3h-5.1v-5.5c0-0.8-2.7-2.9-7.6-2.9S-4-25.6-4-24.8v5.5h-5.1v-5.5
					c0-4.6,5.5-8,12.7-8s12.7,3.4,12.7,8V-19.3z"/>
			</g>
		</g>
	</g>
	<path class="st0" d="M72,26c0-0.1,0-0.3,0-0.4c0-6.7,0-13.4,0-20.2c0-0.4,0-0.9-0.1-1.3c0-0.3,0.1-0.4,0.3-0.5
		c0.7-0.2,1.5-0.2,2.1,0.2c1.9,1,3.7,2.1,5.5,3.2c1.4,0.9,1.8,2.5,0.9,4.1c-1.2,2.1-2.4,4.2-3.6,6.2c-1.6,2.8-3.2,5.6-4.9,8.4
		C72.2,25.8,72.1,26,72,26C72,26,72,26,72,26z"/>
	<path class="st0" d="M67.3,23.6c0.9,0,1.7,0.2,2.5,0.7c0-6.3,0-12.6,0-18.9c0-1.6-0.8-2.7-2.2-3.1c-0.2-0.1-0.4-0.1-0.7-0.1
		c-2.4,0-4.8,0-7.2,0c-0.3,0.1-0.6,0.1-0.9,0.2c-1.1,0.4-1.8,1.2-2,2.4c0,0.1-0.1,0.2-0.1,0.3c0,6.2,0,12.4,0,18.6H67.3z"/>
	<path class="st0" d="M92.2,26c-0.2-1-0.7-1.8-1.7-2.2c-0.3-0.2-0.6-0.1-0.9,0c-5.7,3.3-11.5,6.6-17.2,10c-0.1,0-0.1,0.1-0.2,0.1
		v3.7c0.8,0,1.6,0,2.4,0c4.8,0,9.6,0,14.4,0c1.6,0,2.8-0.8,3.1-2.2c0.1-0.2,0.1-0.4,0.1-0.7c0-2.8,0-5.6,0-8.3
		C92.2,26.2,92.2,26.1,92.2,26z"/>
	<path class="st0" d="M89.4,18c-1-1.8-2-3.6-3.1-5.3c-0.5-0.8-1.2-1.2-2.2-1.4c-0.8-0.1-1.1,0-1.5,0.7c-1.4,2.4-2.8,4.8-4.2,7.3
		c-2.1,3.6-4.2,7.2-6.3,10.8v1.2c0.1,0,0.1-0.1,0.2-0.1c5.3-3,10.6-6.1,15.8-9.1C89.7,21.2,90.2,19.6,89.4,18z"/>
</g>
<g>
	<g id="Symbol_4_5_1_">
		<g id="Gruppe_55_1_" transform="translate(-3516.014 -2367.962)">
			<g id="Gruppe_54_1_" transform="translate(3548.014 2413.656)">
				<path id="Pfad_2_1_" class="st0" d="M347.5,38.2h15.2v-50.8h-15.2V38.2z"/>
				<path id="Pfad_3_1_" class="st0" d="M383.9-12.6h-16.1v50.8h16.1c2.8,0,5.1-2.3,5.1-5.1V-7.6C389-10.4,386.7-12.6,383.9-12.6"/>
				<path id="Pfad_4_1_" class="st0" d="M326.3-12.6c-2.8,0-5.1,2.3-5.1,5.1v40.7c0,2.8,2.3,5.1,5.1,5.1h16.1v-50.9H326.3z"/>
				<path id="Pfad_5_1_" class="st0" d="M367.8-12.6h-5.1v-5.5c0-0.8-2.7-2.9-7.6-2.9s-7.6,2.1-7.6,2.9v5.5h-5.1v-5.5
					c0-4.6,5.5-8,12.7-8s12.7,3.4,12.7,8V-12.6z"/>
			</g>
		</g>
	</g>
	<path class="st0" d="M444.7,23.2c-0.5-4-2.4-7.3-5.4-10c-2.9-2.6-6.4-4-10.3-4.6c-3.5-0.5-6.9-0.1-10.2,1.4
		c-5.6,2.6-9.2,6.9-10.5,13c-0.5,2.6-0.6,5-0.2,7.2h10.5c2.8,0,5.1,2.2,5.1,5v9.9c0.6,0.1,1.2,0.1,1.8,0.2c0.2,0,0.4,0.1,0.6,0.1
		c0.1,0,0.2,0,0.3,0c0.3-0.1,0.6-0.1,0.9-0.2c1.9-0.6,2.7-3,1.5-4.6c-0.3-0.3-0.5-0.7-0.7-1.1c-0.9-1.9,0.4-4.2,2.5-4.4
		c1.4-0.1,2.9,0,4.4-0.1c2.4-0.1,4.4-0.9,6.2-2.4c2-1.7,3.2-4,3.5-6.6c0-0.3,0.1-0.7,0.1-1c0-0.1,0-0.2,0-0.3
		C444.8,24.2,444.7,23.7,444.7,23.2z M415.1,26.9c-1.7,0-3.1-1.3-3.1-3.1s1.3-3.1,3.1-3.1c1.7,0,3.1,1.4,3.1,3.1
		C418.2,25.5,416.8,26.9,415.1,26.9z M421.2,18.7c-1.7,0-3.1-1.4-3.1-3.1c0-1.7,1.4-3.1,3.1-3.1c1.7,0,3.1,1.4,3.1,3.1
		C424.3,17.4,422.9,18.7,421.2,18.7z M431.5,18.7c-1.7,0-3.1-1.4-3.1-3.1c0-1.7,1.4-3.1,3.1-3.1c1.7,0,3.1,1.4,3.1,3.1
		C434.6,17.3,433.2,18.7,431.5,18.7z M437.6,26.9c-1.7,0-3.1-1.4-3.1-3.1c0-1.7,1.4-3.1,3.1-3.1c1.7,0,3.1,1.4,3.1,3.2
		C440.7,25.6,439.3,27,437.6,26.9z"/>
</g>
</svg>
