<?xml version="1.0" encoding="utf-8"?>
<svg version="1.1" id="Layer_1" xmlns="http://www.w3.org/2000/svg" xmlns:xlink="http://www.w3.org/1999/xlink" x="0px" y="0px"
	 viewBox="0 0 94 79.5" style="enable-background:new 0 0 94 79.5;" xml:space="preserve">
<style type="text/css">
	.st0{fill:#FFFFFF;}
</style>
<g id="Symbol_4_5">
	<g id="Gruppe_55" transform="translate(-3516.014 -2367.962)">
		<path id="Differenzmenge_2" class="st0" d="M3590.6,2405.3c-0.7,0-1.4,0-2.2-0.1v-8.5c0-2.8-2.3-5.1-5.1-5.1h-9.9
			c-0.2-0.9-0.3-1.8-0.4-2.8v-2.1c0.5-8.9,7.6-16,16.5-16.5h2.1c9.7,0.6,17.1,8.9,16.5,18.6
			C3607.6,2398,3599.9,2405.3,3590.6,2405.3L3590.6,2405.3z M3590.6,2376.2c-0.7,0-1.2,0.5-1.2,1.2v12.4v0.1v0.1v0.1v0.1l0,0l0,0
			l0,0c0,0.1,0.1,0.1,0.1,0.2l0,0c0,0.1,0.1,0.1,0.1,0.2l0,0l0,0c0,0,0,0,0.1,0.1c0,0,0,0,0.1,0.1l0,0l0,0c0.1,0,0.1,0.1,0.2,0.1
			l0,0l0,0h0.1l0,0l0,0l0,0h0.1h0.1l0,0h0.1h0.1l0,0l0,0c0.1,0,0.1,0,0.2-0.1l0,0l6.7-3.2c0.6-0.3,0.9-1,0.6-1.6l0,0
			c-0.2-0.4-0.6-0.7-1.1-0.7c-0.2,0-0.4,0-0.5,0.1l-5,2.4v-10.5C3591.8,2376.8,3591.2,2376.2,3590.6,2376.2L3590.6,2376.2z"/>
		<g id="Gruppe_54" transform="translate(3548.014 2413.656)">
			<path id="Pfad_2" class="st0" d="M-3.9,31.5h15.2v-50.8H-3.9V31.5z"/>
			<path id="Pfad_3" class="st0" d="M32.5-19.3H16.4v50.8h16.1c2.8,0,5.1-2.3,5.1-5.1v-40.7C37.6-17.1,35.3-19.3,32.5-19.3"/>
			<path id="Pfad_4" class="st0" d="M-25.1-19.3c-2.8,0-5.1,2.3-5.1,5.1v40.7c0,2.8,2.3,5.1,5.1,5.1H-9v-50.9H-25.1z"/>
			<path id="Pfad_5" class="st0" d="M16.4-19.3h-5.1v-5.5c0-0.8-2.7-2.9-7.6-2.9s-7.6,2.1-7.6,2.9v5.5H-9v-5.5c0-4.6,5.5-8,12.7-8
				s12.7,3.4,12.7,8V-19.3z"/>
		</g>
	</g>
</g>
</svg>
