<?xml version="1.0" encoding="utf-8"?>
<!-- Generator: Adobe Illustrator 22.1.0, SVG Export Plug-In . SVG Version: 6.00 Build 0)  -->
<svg version="1.1" id="Layer_1" xmlns="http://www.w3.org/2000/svg" xmlns:xlink="http://www.w3.org/1999/xlink" x="0px" y="0px"
	 viewBox="0 0 48 35" style="enable-background:new 0 0 48 35;" xml:space="preserve">
<style type="text/css">
	.st0{fill:#1F2E42;}
</style>
<g>
	<path class="st0" d="M30.6,2.2c-0.1,0.2-0.1,0.5-0.2,0.8c-2.9,10-5.7,20.1-8.6,30.1c-0.4,1.3-1.3,2-2.5,1.9
		c-1.3-0.2-2.2-1.4-1.8-2.7c0.8-3,1.7-6,2.6-9c2-7.2,4.1-14.3,6.1-21.5C26.6,0.6,27.4,0,28.4,0c1,0,1.8,0.7,2.1,1.6
		C30.5,1.8,30.5,2,30.6,2.2z"/>
	<path class="st0" d="M42.7,17.6c-0.2-0.2-0.3-0.3-0.4-0.5c-2.2-2.2-4.5-4.5-6.7-6.7C34.9,9.7,34.7,9,35,8.1
		c0.2-0.8,0.8-1.3,1.7-1.5c0.7-0.2,1.4,0,1.9,0.6c2.9,2.9,5.9,5.9,8.8,8.8c0.9,0.9,0.9,2.2,0,3.1c-2.9,2.9-5.8,5.9-8.7,8.8
		c-0.9,0.9-2.2,0.9-3.1,0c-0.9-0.9-0.9-2.2,0-3.1c2.2-2.3,4.5-4.5,6.7-6.7C42.4,17.8,42.5,17.7,42.7,17.6z"/>
	<path class="st0" d="M5.2,17.5c0.2,0.2,0.4,0.3,0.5,0.4c2.2,2.2,4.5,4.5,6.7,6.7c0.6,0.6,0.8,1.4,0.6,2.3c-0.3,0.8-0.8,1.3-1.7,1.5
		c-0.7,0.2-1.4-0.1-1.9-0.6C6.5,24.9,3.6,22,0.7,19c-0.9-0.9-0.9-2.2,0-3c2.9-2.9,5.8-5.9,8.8-8.8c0.9-0.9,2.2-0.8,3.1,0
		c0.8,0.8,0.9,2.2,0,3.1C10.3,12.6,8,14.8,5.8,17C5.6,17.2,5.5,17.3,5.2,17.5z"/>
</g>
</svg>
