<?xml version="1.0" encoding="utf-8"?>
<!-- Generator: Adobe Illustrator 22.1.0, SVG Export Plug-In . SVG Version: 6.00 Build 0)  -->
<svg version="1.1" id="Layer_1" xmlns="http://www.w3.org/2000/svg" xmlns:xlink="http://www.w3.org/1999/xlink" x="0px" y="0px"
	 viewBox="0 0 29 29" style="enable-background:new 0 0 29 29;" xml:space="preserve">
<style type="text/css">
	.st0{fill:#1F2E42;}
</style>
<g>
	<path class="st0" d="M0,0.6C0.2,0.1,0.6,0,1.1,0c1,0,2,0,3,0c0.7,0,1,0.3,1,1c0,0.2,0,0.5,0,0.7c0.1,0,0.2,0,0.3,0
		c2.1,0,4.3,0,6.4,0c0.2,0,0.3-0.1,0.4-0.2c0.5-1,1.2-1.5,2.3-1.5c1,0,1.8,0.5,2.3,1.5c0.1,0.1,0.1,0.2,0.3,0.2c2.2,0,4.4,0,6.5,0
		c0.1,0,0.1,0,0.2,0c0-0.3,0-0.5,0-0.8c0-0.5,0.4-0.9,0.9-0.9c1.1,0,2.2,0,3.4,0C28.7,0,29,0.4,29,0.9c0,1.1,0,2.2,0,3.3
		c0,0.5-0.4,0.9-0.9,0.9c-1.1,0-2.2,0-3.4,0c-0.5,0-0.9-0.4-0.9-0.9c0-0.3,0-0.5,0-0.8c-1.1,0-2.3,0-3.4,0C20.7,3.6,21,3.8,21.2,4
		c2.3,1.8,3.7,4.2,4.1,7.1c0.1,0.6,0.2,1,0.8,1.3c0.9,0.5,1.3,1.6,1,2.6c-0.2,1-1.1,1.8-2.1,1.9c-1.1,0.1-2.1-0.3-2.6-1.3
		c-0.7-1.3-0.2-2.9,1.1-3.5c0.1-0.1,0.2-0.1,0.2-0.3c-0.2-1.9-0.9-3.6-2-5c-1.3-1.6-2.9-2.6-4.8-3.1c-0.1,0-0.2,0-0.3,0.1
		c-1,1.6-3.3,1.6-4.3,0c0-0.1-0.2-0.1-0.3-0.1C9.1,4.7,7,6.5,5.8,9.4c-0.3,0.8-0.5,1.7-0.6,2.5c0,0.2,0,0.2,0.2,0.3
		c1.2,0.6,1.7,1.8,1.3,3.1c-0.3,0.9-0.9,1.5-1.9,1.6c-0.9,0.2-1.8-0.1-2.4-0.8c-1.2-1.4-0.7-3.3,0.9-4c0.2-0.1,0.2-0.3,0.2-0.4
		c0.1-1.1,0.4-2.2,0.8-3.2c0.8-2,2.2-3.7,4-4.9c0.1,0,0.1-0.1,0.3-0.2c-1.2,0-2.3,0-3.4,0c0,0.2,0,0.5,0,0.7c0,0.6-0.3,0.9-1,0.9
		c-1,0-2,0-3.1,0C0.6,5.1,0.2,5,0,4.5C0,3.2,0,1.9,0,0.6z"/>
	<path class="st0" d="M9.3,29c-0.1,0-0.1-0.1-0.2-0.1c-0.4-0.2-0.6-0.6-0.4-1c0.5-1.4,1.7-2.3,3.2-2.3c1.7,0,3.4,0,5.1,0
		c1.5,0,2.7,0.9,3.2,2.3c0.2,0.5,0,0.8-0.6,1.1C16.2,29,12.8,29,9.3,29z"/>
	<path class="st0" d="M15.4,7.5c1,1.5,2,3,3,4.5c1.2,1.7,2.3,3.5,3.5,5.2c0.3,0.5,0.3,0.9-0.1,1.3c-1.5,1.5-2.4,3.3-2.8,5.4
		c0,0.1,0,0.1,0,0.2c0,0,0,0,0,0.1c-0.1,0-0.3-0.1-0.4-0.1c-0.5-0.1-1.1-0.2-1.6-0.2c-1.6,0-3.1,0-4.7,0c-0.7,0-1.4,0.1-2,0.3
		c0,0-0.1,0-0.1,0c-0.2-0.7-0.4-1.3-0.6-2c-0.5-1.3-1.2-2.4-2.1-3.4c0-0.1-0.1-0.1-0.2-0.2c-0.4-0.5-0.4-0.8-0.1-1.3
		c1.4-2.1,2.8-4.2,4.2-6.3c0.8-1.1,1.5-2.3,2.3-3.5c0,0.1,0,0.2,0,0.2c0,2.5,0,5,0,7.5c0,0.2,0,0.3-0.2,0.3
		c-1.1,0.5-1.6,1.6-1.4,2.8c0.2,1,1.1,1.9,2.1,2c1.2,0.2,2.3-0.4,2.7-1.5c0.5-1.2,0-2.7-1.2-3.3c-0.2-0.1-0.3-0.2-0.3-0.4
		c0-2.5,0-4.9,0-7.4C15.3,7.7,15.3,7.7,15.4,7.5C15.4,7.6,15.4,7.5,15.4,7.5z"/>
	<path class="st0" d="M15.3,17.9c0,0.5-0.4,0.8-0.8,0.8s-0.8-0.4-0.8-0.8s0.4-0.8,0.8-0.8S15.3,17.4,15.3,17.9z"/>
</g>
</svg>
