<svg width="34" height="35" viewBox="0 0 34 35" fill="none" xmlns="http://www.w3.org/2000/svg">
<g clip-path="url(#clip0_66_4764)">
<path d="M33.741 14.4854C32.7914 9.25586 30.0887 5.25684 25.7059 2.47461C23.4414 1.03906 20.9645 0.259766 18.3148 0.0546875C18.2285 0.0478516 18.1422 0.0205078 18.0625 0C17.352 0 16.648 0 15.9375 0C15.3266 0.0888672 14.709 0.157227 14.1047 0.266602C10.1668 0.970703 6.87969 2.87793 4.23672 5.9541C1.83281 8.75 0.471484 12.0244 0.0796875 15.7363C0.053125 15.9619 0.0265625 16.1875 0 16.4062C0 17.1377 0 17.8623 0 18.5938C0.0863281 19.2432 0.152734 19.8994 0.265625 20.5488C1.01602 24.8213 3.04141 28.3281 6.29531 31.0762C8.7457 33.1475 11.5613 34.3779 14.6957 34.8359C15.1074 34.8975 15.5258 34.9453 15.9375 34.9932C16.648 34.9932 17.352 34.9932 18.0625 34.9932C18.6934 34.9043 19.3309 34.8428 19.9617 34.7197C24.1055 33.9404 27.5254 31.8623 30.1883 28.5195C32.3332 25.8262 33.5551 22.7227 33.9137 19.2637C33.9402 19.0381 33.9668 18.8125 33.9934 18.5938C33.9934 17.8623 33.9934 17.1377 33.9934 16.4062C33.9137 15.7637 33.8539 15.1211 33.741 14.4854ZM18.4012 27.5283H15.5855V20.9795H18.4012V27.5283ZM24.9289 17.0146H20.1078L23.541 20.4463L21.6617 22.3945L17 17.5752L12.3383 22.3945L10.4523 20.4531L13.8855 17.0215H9.06445V14.2598H13.859L10.4523 10.917L12.3383 8.9209L15.5855 12.3594V7.47168H18.4012V12.3594L21.6484 8.92773L23.5344 10.917L20.1277 14.2529H24.9223V17.0146H24.9289Z" fill="#429EC8"/>
</g>
<defs>
<clipPath id="clip0_66_4764">
<rect width="34" height="35" fill="white"/>
</clipPath>
</defs>
</svg>
