<svg width="34" height="34" viewBox="0 0 34 34" fill="none" xmlns="http://www.w3.org/2000/svg">
<g clip-path="url(#clip0_66_4756)">
<path d="M0 18.0716C0 17.3614 0 16.658 0 15.9478C0.0199219 15.8416 0.0398437 15.7354 0.0597656 15.6226C0.185937 14.8129 0.245703 13.99 0.438281 13.2002C1.72656 7.95055 4.81445 4.10125 9.64883 1.69875C12.8562 0.112571 16.2695 -0.345364 19.7957 0.251942C24.2051 1.00189 27.8043 3.17874 30.5137 6.7294C33.3492 10.446 34.4449 14.6669 33.8406 19.2994C33.3957 22.7107 31.9945 25.7171 29.6969 28.2789C27.0805 31.2057 23.8332 33.0308 19.9617 33.7276C19.3309 33.8405 18.6934 33.9068 18.0625 33.9931C17.352 33.9931 16.648 33.9931 15.9375 33.9931C15.5258 33.94 15.1074 33.9002 14.6957 33.8405C11.3156 33.356 8.3207 32.0021 5.76406 29.7323C2.81563 27.1174 0.969531 23.8588 0.265625 19.9697C0.152734 19.3392 0.0863281 18.7021 0 18.0716ZM16.9801 24.7282C19.8687 24.7282 22.7574 24.7282 25.6461 24.7282C27.0805 24.7282 27.9637 23.8455 27.9637 22.412C27.9637 18.8083 27.9637 15.2045 27.9637 11.5941C27.9637 10.1606 27.0871 9.28454 25.6461 9.28454C19.8953 9.28454 14.1379 9.28454 8.38711 9.28454C6.92617 9.28454 6.05625 10.1606 6.05625 11.614C6.05625 15.1979 6.08281 18.7817 6.04297 22.3655C6.02969 23.6663 6.95273 24.7614 8.42695 24.7415C11.2691 24.7017 14.1246 24.7282 16.9801 24.7282Z" fill="#429EC8"/>
<path d="M7.80254 11.9326C8.85176 12.7622 9.81465 13.5321 10.7842 14.3019C12.6369 15.7753 14.4897 17.242 16.3424 18.7154C16.8139 19.087 17.1791 19.087 17.6572 18.7087C20.3334 16.585 23.0096 14.4612 25.6857 12.3375C25.8318 12.2246 25.9713 12.1118 26.1838 11.9459C26.1838 12.145 26.1838 12.2578 26.1838 12.3773C26.1838 15.6956 26.1838 19.014 26.1838 22.3324C26.1838 22.9231 26.1107 22.9961 25.5131 22.9961C19.8221 22.9961 14.1377 22.9961 8.44668 22.9961C7.86895 22.9961 7.7959 22.9164 7.7959 22.3457C7.7959 19.014 7.7959 15.689 7.7959 12.3574C7.80254 12.2379 7.80254 12.1251 7.80254 11.9326Z" fill="#429EC8"/>
<path d="M24.4703 11.0564C23.8527 11.5476 23.2949 11.9922 22.7371 12.4369C20.9109 13.8903 19.0781 15.3371 17.252 16.7906C17.0793 16.9233 16.973 16.9698 16.7738 16.8105C14.4297 14.9389 12.0789 13.0806 9.73477 11.2157C9.68828 11.1759 9.62852 11.1494 9.61523 11.0498C14.5359 11.0564 19.45 11.0564 24.4703 11.0564Z" fill="#429EC8"/>
</g>
<defs>
<clipPath id="clip0_66_4756">
<rect width="34" height="34" fill="white"/>
</clipPath>
</defs>
</svg>
