<svg width="34" height="34" viewBox="0 0 34 34" fill="none" xmlns="http://www.w3.org/2000/svg">
<g clip-path="url(#clip0_66_4761)">
<path d="M15.9375 0C16.648 0 17.352 0 18.0625 0C18.1488 0.0199219 18.2352 0.0464844 18.3148 0.053125C20.9645 0.252344 23.4414 1.00938 25.6992 2.40391C30.0887 5.10664 32.7914 8.99141 33.7344 14.0715C33.8473 14.6891 33.907 15.3133 33.9934 15.9375C33.9934 16.648 33.9934 17.352 33.9934 18.0625C33.9668 18.2816 33.9336 18.5008 33.9137 18.7133C33.5484 22.0734 32.3332 25.0949 30.1883 27.7047C27.5188 30.9586 24.1055 32.9773 19.9617 33.7277C19.3309 33.8406 18.6934 33.907 18.0625 33.9934C17.352 33.9934 16.648 33.9934 15.9375 33.9934C15.5258 33.9402 15.1074 33.9004 14.6957 33.8406C11.5613 33.3957 8.73906 32.2004 6.29531 30.1883C3.04805 27.5188 1.02266 24.1055 0.265625 19.9617C0.152734 19.3309 0.0863281 18.6934 0 18.0625C0 17.352 0 16.648 0 15.9375C0.0265625 15.7184 0.0597656 15.4992 0.0796875 15.2867C0.471484 11.6809 1.83281 8.5 4.23672 5.78398C6.87969 2.7957 10.1668 0.942969 14.1047 0.258984C14.709 0.152734 15.3266 0.0863281 15.9375 0ZM18.4875 25.6859C18.4875 24.6168 18.4875 23.5742 18.4875 22.5383C18.4941 21.1305 18.4875 19.7293 18.5207 18.3215C18.5406 17.5578 18.9391 16.9734 19.5633 16.5617C20.7652 15.7582 22.2727 16.2961 22.6645 17.6773C22.7973 18.1355 22.8371 18.6336 22.8438 19.1184C22.8637 21.1902 22.8504 23.2555 22.8504 25.3273C22.8504 25.4469 22.8504 25.5598 22.8504 25.6727C24.2516 25.6727 25.6129 25.6727 26.9742 25.6727C26.9809 25.5664 26.9875 25.4734 26.9875 25.3871C26.9875 23.116 26.9941 20.8516 26.9809 18.5805C26.9809 18.1289 26.9477 17.6707 26.8945 17.2258C26.6023 14.7887 25.148 13.248 22.7973 12.9758C21.1039 12.7832 19.6762 13.2945 18.6668 14.7488C18.6336 14.7953 18.5871 14.8352 18.4941 14.9348C18.4941 14.4234 18.4809 13.9852 18.5008 13.5469C18.5074 13.3012 18.4344 13.2215 18.182 13.2281C17 13.2414 15.8113 13.2348 14.6293 13.2348C14.543 13.2348 14.4566 13.2547 14.377 13.2613C14.377 17.4184 14.377 21.5488 14.377 25.6859C15.7449 25.6859 17.093 25.6859 18.4875 25.6859ZM12.0461 25.6926C12.0527 25.6062 12.0594 25.5531 12.0594 25.5C12.0594 21.5023 12.0594 17.5113 12.066 13.5137C12.066 13.2547 11.9531 13.2348 11.7473 13.2348C10.5719 13.2414 9.40312 13.2348 8.22773 13.2414C8.13477 13.2414 8.03516 13.2547 7.93555 13.2613C7.93555 17.4184 7.93555 21.5488 7.93555 25.6926C9.3168 25.6926 10.6648 25.6926 12.0461 25.6926ZM7.6832 9.39648C7.6832 10.6582 8.65273 11.5547 9.99414 11.548C11.3488 11.5414 12.3383 10.6383 12.3316 9.40977C12.3316 8.14805 11.3621 7.24492 10.0207 7.24492C8.64609 7.23828 7.6832 8.12148 7.6832 9.39648Z" fill="#429EC8"/>
</g>
<defs>
<clipPath id="clip0_66_4761">
<rect width="34" height="34" fill="white"/>
</clipPath>
</defs>
</svg>
