<svg width="722" height="380" viewBox="0 0 722 380" fill="none" xmlns="http://www.w3.org/2000/svg">
<path d="M737.703 41.7366L725.455 41.7366L725.455 53.984L737.703 53.984L737.703 41.7366ZM448.383 333.178L732.64 48.921L730.519 46.7996L446.262 331.057L448.383 333.178Z" fill="#96A6C6" fill-opacity="0.3"/>
<line x1="436.009" y1="343.431" x2="443.08" y2="336.359" stroke="#96A6C6" stroke-opacity="0.3" stroke-width="3"/>
<line x1="424.695" y1="354.745" x2="431.766" y2="347.674" stroke="#96A6C6" stroke-opacity="0.3" stroke-width="3"/>
<line x1="413.381" y1="366.058" x2="420.452" y2="358.987" stroke="#96A6C6" stroke-opacity="0.3" stroke-width="3"/>
<line x1="406.31" y1="373.13" x2="409.846" y2="369.594" stroke="#96A6C6" stroke-opacity="0.3" stroke-width="3"/>
<line x1="401.36" y1="378.079" x2="403.482" y2="375.958" stroke="#96A6C6" stroke-opacity="0.3" stroke-width="3"/>
<path d="M337.703 31.7366L325.455 31.7366L325.455 43.984L337.703 43.984L337.703 31.7366ZM48.3829 323.178L332.64 38.921L330.519 36.7996L46.2616 321.057L48.3829 323.178Z" fill="#96A6C6" fill-opacity="0.3"/>
<line x1="36.0087" y1="333.431" x2="43.0797" y2="326.359" stroke="#96A6C6" stroke-opacity="0.3" stroke-width="3"/>
<line x1="24.6952" y1="344.745" x2="31.7663" y2="337.674" stroke="#96A6C6" stroke-opacity="0.3" stroke-width="3"/>
<line x1="13.3807" y1="356.058" x2="20.4518" y2="348.987" stroke="#96A6C6" stroke-opacity="0.3" stroke-width="3"/>
<line x1="6.31043" y1="363.13" x2="9.84597" y2="359.594" stroke="#96A6C6" stroke-opacity="0.3" stroke-width="3"/>
<line x1="1.36024" y1="368.079" x2="3.48156" y2="365.958" stroke="#96A6C6" stroke-opacity="0.3" stroke-width="3"/>
<path d="M728.667 149.92L716.42 149.833L716.333 162.08L728.58 162.167L728.667 149.92ZM578.375 300.185L723.553 157.068L721.447 154.932L576.269 298.049L578.375 300.185Z" fill="#96A6C6" fill-opacity="0.1"/>
<line x1="566.009" y1="310.431" x2="573.08" y2="303.359" stroke="#96A6C6" stroke-opacity="0.1" stroke-width="3"/>
<line x1="554.695" y1="321.745" x2="561.766" y2="314.674" stroke="#96A6C6" stroke-opacity="0.1" stroke-width="3"/>
<line x1="543.381" y1="333.058" x2="550.452" y2="325.987" stroke="#96A6C6" stroke-opacity="0.1" stroke-width="3"/>
<line x1="536.31" y1="340.13" x2="539.846" y2="336.594" stroke="#96A6C6" stroke-opacity="0.1" stroke-width="3"/>
<line x1="531.36" y1="345.079" x2="533.482" y2="342.958" stroke="#96A6C6" stroke-opacity="0.1" stroke-width="3"/>
<path d="M761.703 -9.26343L749.455 -9.26343L749.455 2.98401L761.703 2.98402L761.703 -9.26343ZM472.383 282.178L756.64 -2.07905L754.519 -4.20037L470.262 280.057L472.383 282.178Z" fill="#96A6C6" fill-opacity="0.2"/>
<line x1="460.009" y1="292.431" x2="467.08" y2="285.359" stroke="#96A6C6" stroke-opacity="0.2" stroke-width="3"/>
<line x1="448.695" y1="303.745" x2="455.766" y2="296.674" stroke="#96A6C6" stroke-opacity="0.2" stroke-width="3"/>
<line x1="437.381" y1="315.058" x2="444.452" y2="307.987" stroke="#96A6C6" stroke-opacity="0.2" stroke-width="3"/>
<line x1="430.31" y1="322.13" x2="433.846" y2="318.594" stroke="#96A6C6" stroke-opacity="0.2" stroke-width="3"/>
<line x1="425.36" y1="327.079" x2="427.482" y2="324.958" stroke="#96A6C6" stroke-opacity="0.2" stroke-width="3"/>
</svg>
