<?xml version="1.0" encoding="utf-8"?>
<!-- Generator: Adobe Illustrator 22.1.0, SVG Export Plug-In . SVG Version: 6.00 Build 0)  -->
<svg version="1.1" id="Layer_1" xmlns="http://www.w3.org/2000/svg" xmlns:xlink="http://www.w3.org/1999/xlink" x="0px" y="0px"
	 viewBox="0 0 99.3 90.3" style="enable-background:new 0 0 99.3 90.3;" xml:space="preserve">
<style type="text/css">
	.st0{fill:#FFFFFF;}
</style>
<g>
	<g>
		<g>
			<g>
				<g>
					<g id="Symbol_3_1_2_">
						<g id="Gruppe_48_2_" transform="translate(-3601 -1924.566)">
							<g id="Gruppe_47_2_" transform="translate(490.259 207.007)">
								<g id="Gruppe_36_2_" transform="translate(3159.938 1800.617)">
									<path id="Pfad_10_2_" class="st0" d="M0.4-18.1L-23.5-27v11.1l0,0c0.7,7,11.3,12.4,24.4,12.4s23.7-5.4,24.3-12.3l0,0v-11.6
										L0.4-18.1z"/>
								</g>
								<g id="Gruppe_37_2_" transform="translate(3136.741 1771.993)">
									<path id="Pfad_11_2_" class="st0" d="M24,8.3L70.7-9.2L23.9-27.3l-47.3,18l15.1,5.6v6.3c-0.9,0.6-1.1,1.8-0.5,2.6l0,0
										c0,0,0,0,0,0.1v4c0,0.5,0.2,1,0.7,1.3l-2.1,18.5l0,0c0,0.1,0,0.3,0,0.4c0.1,1.6,1.5,2.8,3.1,2.7c1.6,0.1,3-1.1,3.1-2.7
										c0-0.1,0-0.3,0-0.4l0,0l-2.3-18.5c0.4-0.3,0.7-0.8,0.7-1.3v-4c0,0,0,0,0-0.1c0.6-0.8,0.4-2-0.5-2.6l0,0v-5.5L24,8.3z"/>
								</g>
							</g>
						</g>
					</g>
				</g>
			</g>
		</g>
	</g>
	<path class="st0" d="M58.9,27.6c0-6.4,0-12.8,0-19.2c0-0.2,0-0.4,0-0.6c0-0.1-0.1-0.3-0.2-0.3c-0.6,0-1.3-0.2-1.9,0.2
		c-0.5,0.4-0.6,0.9-0.6,1.6c0,5.8,0,11.6,0,17.4L58.9,27.6z"/>
	<path class="st0" d="M74.6,34c0-8.9,0-17.9,0-26.8c0-0.8-0.2-1.3-0.9-1.5c0,0,0,0,0,0c-3.6-2-7.5-2.6-11.5-2.5
		c-0.9,0-1.4,0.7-1.4,1.6c0,0.1,0,0.3,0,0.4c0,7.8,0,15.6,0,23.5L74.6,34z"/>
	<path class="st0" d="M79.5,35.8c0.8-0.4,1.6-0.8,2.4-1.1c2.5-0.9,5.1-1.2,7.7-1.2c1.1,0,1.7-0.6,1.7-1.8c0-8.9,0-17.8,0-26.7
		c0-1.3-0.5-1.9-1.7-1.9c-1.7,0.1-3.4,0.2-5,0.4c-2.3,0.3-4.5,1.1-6.5,2.3c-0.4,0.2-0.6,0.5-0.6,1.1c0,9.4,0,18.7,0,28.1L79.5,35.8z
		"/>
	<path class="st0" d="M84.4,37.8c3.2,0,6.5,0,9.7,0c1.4,0,1.8-0.5,1.8-2.1c0-8.8,0-17.5,0-26.3c0-0.2,0-0.4,0-0.6
		c0-0.8-0.6-1.4-1.3-1.5c-0.3,0-0.6,0-0.9,0c-0.3,0-0.4,0.2-0.4,0.5c0,0.2,0,0.4,0,0.6c0,7.7,0,15.3,0,23c0,0.5,0,1-0.1,1.5
		c-0.3,1.7-1.6,2.9-3.2,2.9c-1.9,0-3.8,0-5.6,0.5c-0.7,0.2-1.4,0.4-2.1,0.6L84.4,37.8z"/>
</g>
</svg>
