<?xml version="1.0" encoding="utf-8"?>
<svg version="1.1" id="Layer_1" xmlns="http://www.w3.org/2000/svg" xmlns:xlink="http://www.w3.org/1999/xlink" x="0px" y="0px"
	 viewBox="0 0 99.3 90.3" style="enable-background:new 0 0 99.3 90.3;" xml:space="preserve">
<style type="text/css">
	.st0{fill:#FFFFFF;}
</style>
<g>
	<g>
		<g id="Symbol_3_1">
			<g id="Gruppe_48" transform="translate(-3601 -1924.566)">
				<path id="Differenzmenge_1" class="st0" d="M3693.6,1963.9l-38-14.7v-9.9c0-1.6,1.3-2.9,2.9-2.9h9.1v-3.1c0-2.6,3.1-4.5,7.2-4.5
					s7.2,2,7.2,4.5v3.1h9.1c1.6,0,2.9,1.3,2.9,2.9v23.1C3694.1,1962.9,3693.9,1963.5,3693.6,1963.9L3693.6,1963.9z M3667.6,1936.4
					h11.5v-3.1c0-0.5-1.5-1.7-4.3-1.7s-4.3,1.2-4.3,1.7v3.1H3667.6z"/>
				<g id="Gruppe_47" transform="translate(490.259 207.007)">
					<g id="Gruppe_36" transform="translate(3159.938 1800.617)">
						<path id="Pfad_10" class="st0" d="M0.4-18.6l-23.9-8.9v11.1l0,0C-22.8-9.4-12.2-4,0.9-4s23.7-5.4,24.3-12.3l0,0v-11.6
							L0.4-18.6z"/>
					</g>
					<g id="Gruppe_37" transform="translate(3136.741 1771.993)">
						<path id="Pfad_11" class="st0" d="M24,7.8L70.7-9.7L23.9-27.8l-47.3,18l15.1,5.6v6.3c-0.9,0.6-1.1,1.8-0.5,2.6l0,0
							c0,0,0,0,0,0.1v4c0,0.5,0.2,1,0.7,1.3l-2.1,18.5l0,0c0,0.1,0,0.3,0,0.4c0.1,1.6,1.5,2.8,3.1,2.7c1.6,0.1,3-1.1,3.1-2.7
							c0-0.1,0-0.3,0-0.4l0,0l-2.3-18.5c0.4-0.3,0.7-0.8,0.7-1.3v-4c0,0,0,0,0-0.1c0.6-0.8,0.4-2-0.5-2.6l0,0v-5.5L24,7.8z"/>
					</g>
				</g>
			</g>
		</g>
	</g>
</g>
</svg>
