<?xml version="1.0" encoding="utf-8"?>
<!-- Generator: Adobe Illustrator 22.1.0, SVG Export Plug-In . SVG Version: 6.00 Build 0)  -->
<svg version="1.1" id="Layer_1" xmlns="http://www.w3.org/2000/svg" xmlns:xlink="http://www.w3.org/1999/xlink" x="0px" y="0px"
	 viewBox="0 0 94 79.5" style="enable-background:new 0 0 94 79.5;" xml:space="preserve">
<style type="text/css">
	.st0{fill:#FFFFFF;}
</style>
<g>
	<g id="Symbol_4_5_5_">
		<g id="Gruppe_55_5_" transform="translate(-3516.014 -2367.962)">
			<g id="Gruppe_54_5_" transform="translate(3548.014 2413.656)">
				<path id="Pfad_2_5_" class="st0" d="M-4.2,31.3H11v-50.8H-4.2V31.3z"/>
				<path id="Pfad_3_5_" class="st0" d="M32.2-19.5H16.1v50.8h16.1c2.8,0,5.1-2.3,5.1-5.1v-40.7C37.3-17.3,35-19.5,32.2-19.5"/>
				<path id="Pfad_4_5_" class="st0" d="M-25.4-19.5c-2.8,0-5.1,2.3-5.1,5.1v40.7c0,2.8,2.3,5.1,5.1,5.1h16.1v-50.9H-25.4z"/>
				<path id="Pfad_5_5_" class="st0" d="M16.1-19.5H11V-25c0-0.8-2.7-2.9-7.6-2.9s-7.6,2.1-7.6,2.9v5.5h-5.1V-25c0-4.6,5.5-8,12.7-8
					s12.7,3.4,12.7,8V-19.5z"/>
			</g>
		</g>
	</g>
	<path class="st0" d="M90.5,3c-0.7-0.4-1.5-0.6-2.3-0.6c-4.6,0-9.3,0-13.9,0c-4.7,0-9.3,0-14,0c-2.4,0-4.1,1.6-4.1,4
		c0,6.3,0,10.6,0,17h10.9c2.8,0,5.1,2.2,5.1,5v0.5c5.4,0,10.8,0,16.1,0c2.4,0,4.1-1.6,4.1-4c0-6.8,0-11.6,0-18.5
		C92.4,4.9,91.8,3.7,90.5,3z M71.5,13.4c-2.1,2.1-4.2,4.2-6.3,6.3c-0.2,0.2-0.6,0.3-0.9,0.5c-0.6-0.1-1-0.3-1.3-0.8
		c-0.2-0.5-0.2-1,0.2-1.5c0.6-0.6,1.1-1.2,1.7-1.7c1.1-1.1,2.1-2.1,3.2-3.2c0.5-0.5,0.5-0.5,0-0.9c-1.6-1.6-3.1-3.2-4.7-4.7
		C63.2,6.9,63,6.6,63,6.1c0-0.5,0.2-0.9,0.7-1.2c0.5-0.3,1-0.2,1.4,0.1c0.1,0.1,0.3,0.2,0.4,0.3c2,2,4,4,5.9,5.9
		c0.1,0.1,0.2,0.2,0.2,0.2C72.1,12.1,72.1,12.8,71.5,13.4z M84.7,20.2c-1.6,0-8.6,0-10.3,0c-0.8,0-1.4-0.6-1.4-1.4
		c0-0.6,0.4-1.1,1-1.2c0.3,0,0.5-0.1,0.8-0.1c3.1,0,6.2,0,9.3,0c0.2,0,0.5,0,0.7,0c0.8,0.1,1.2,0.7,1.2,1.4
		C86,19.6,85.4,20.2,84.7,20.2z"/>
</g>
</svg>
